<svg xmlns="http://www.w3.org/2000/svg" width="1120" height="418.124" viewBox="0 0 1120 418.124"><defs><clipPath><rect width="320.149" height="48.866" fill="#da2127"/></clipPath></defs><g transform="translate(-309.053 -344.004)"><g transform="translate(309.053 572.951)"><path d="M217.268,62.97v83.09h22.771V72.6L240,72.3l-.041-.319-.042-.319-.067-.314-.056-.313-.065-.311-.074-.3-.079-.311-.091-.3-.089-.3-.114-.3-.113-.3-.124-.286-.126-.286-.148-.277-.144-.286-.165-.259-.17-.276-.178-.252-.185-.255-.2-.242-.195-.247-.212-.234-.217-.227-.219-.215-.229-.213-.246-.2-.243-.192-.252-.192-.247-.177-.262-.178-.269-.155-.269-.153-.276-.141-.284-.136-.286-.126-.282-.116-.292-.1-.3-.1-.3-.084-.3-.081-.3-.059-.308-.06-.3-.045-.31-.034-.3-.023-.315-.015-.316-.013Z" transform="translate(147.939 42.876)" fill="#231f20"/><path d="M347.264,62.97,325.5,121.13l-9.406-48.3-.079-.368-.093-.373-.1-.365-.115-.365-.121-.361-.136-.361-.148-.351-.155-.345-.168-.341-.18-.338-.188-.333-.215-.365-.23-.343-.247-.346-.249-.331-.26-.319-.279-.311-.282-.3-.289-.3-.312-.282-.314-.271-.3-.239-.3-.229-.312-.217-.306-.214-.316-.193-.324-.19-.343-.178-.335-.17-.341-.155-.346-.15-.359-.131L308,63.565l-.356-.109-.368-.1-.365-.086-.363-.081-.368-.067-.385-.052-.372-.037L305.05,63l-.375-.015-.371-.013H286.017L275.19,121.586l-15.6-51.368-.1-.3-.1-.293-.114-.292-.122-.286-.131-.281-.131-.281-.143-.266-.156-.276-.16-.257-.173-.261-.169-.257-.189-.245-.193-.242-.195-.234-.212-.23-.211-.227-.217-.217-.229-.205-.228-.208-.234-.193-.245-.192-.252-.177-.254-.17-.261-.173-.259-.155-.268-.148-.267-.135-.277-.133-.284-.126-.283-.116-.285-.108-.3-.1-.289-.084-.294-.081-.293-.071-.309-.062-.291-.047-.311-.044-.3-.029L250.557,63l-.3-.014-.312-.013H234.985l27.575,83.09h16.09l.366-.007.358-.017.366-.034.348-.044.358-.045.356-.065.352-.074.35-.084.358-.094.34-.111.34-.113.341-.133.326-.138.331-.153.326-.155.318-.173.316-.18.31-.188.3-.2.293-.212.291-.22.278-.225.3-.264.3-.271.291-.277.276-.294.256-.3.257-.311.252-.321.228-.319.215-.333.218-.345.178-.319.173-.324.171-.318.146-.334.143-.34.128-.338.124-.35.109-.343.106-.357.087-.355.076-.363L300.476,83.8,311.94,146.06h18.4l.34-.007.354-.008.33-.029.345-.035.338-.052.331-.049.344-.062.33-.076.328-.084.333-.1.324-.1.334-.114.316-.129.308-.131.344-.153.333-.165.321-.173.319-.19.308-.2.309-.208.307-.213.284-.225.281-.235.281-.25.274-.254.259-.254.272-.277.217-.252.22-.269.212-.272.208-.281.207-.286.177-.287.19-.294.16-.3.169-.3.158-.312.135-.311.131-.325.14-.319.114-.329,19.768-59.6,10.876,35.1H352.391l5.061,16.234h20.013l5.653,16.172H406.4L378.919,70.354l-.118-.326-.134-.323-.14-.316-.153-.311-.156-.3-.168-.3-.178-.3-.181-.294-.2-.276-.195-.282-.219-.267-.217-.276-.238-.254-.239-.247-.242-.247-.25-.237-.26-.217-.268-.227-.26-.207-.284-.2-.279-.192-.291-.177-.3-.182-.3-.163-.3-.155-.31-.146-.294-.131-.3-.119-.3-.1-.3-.1-.3-.094-.309-.082-.313-.072-.308-.059-.316-.057-.306-.045-.318-.037L369.363,63l-.321-.015-.324-.013Z" transform="translate(160.003 42.876)" fill="#231f20"/><path d="M329.131,62.97l.027,15.451h25.2v67.64h22.385V78.42h19.317l.3-.035.3-.037.3-.032.3-.049.288-.049.3-.057.291-.072.285-.076.291-.077.294-.087.273-.092.285-.111.275-.116.275-.128.262-.14.267-.135.255-.15.25-.163.251-.173.245-.17.246-.192.219-.187.228-.2.22-.208.187-.185.177-.188.161-.193.163-.205.165-.195.145-.212.145-.213.141-.218.128-.212.123-.227.105-.22.106-.234.09-.234.089-.244.081-.279.1-.281.072-.281.082-.3.066-.3.059-.294.054-.289.039-.3.033-.3.041-.3.019-.3.008-.308-.008-6.2Z" transform="translate(224.108 42.876)" fill="#231f20"/><path d="M395.906,62.97l-30.255,83.09h21.961L410.064,77.8l10.614,35.415H401.057l4.931,16.506h20.32l5.25,16.338h23.361L427.636,70.735l-.133-.343-.125-.346-.158-.341-.162-.323-.171-.338-.186-.314-.188-.313-.205-.313-.217-.3-.211-.294-.226-.286-.243-.281-.246-.277-.244-.264-.27-.257-.274-.247-.277-.237-.284-.235-.294-.222L423.234,65l-.307-.2-.311-.2-.318-.181-.322-.17-.338-.166-.325-.141-.3-.131-.331-.129-.313-.106-.316-.111-.323-.094-.334-.079-.324-.076-.341-.057L418.4,63.1l-.339-.045-.334-.034L417.393,63l-.352-.014-.333-.013Z" transform="translate(248.974 42.876)" fill="#231f20"/><path d="M165.3,0,163.987.11l-1.313.141-1.311.17L160.057.61l-1.3.22-1.294.239-1.289.266-1.288.292-1.283.318-1.276.343-1.264.361-1.262.39-1.257.42-1.247.434-1.333.5-1.321.531-1.311.55-1.3.583-1.288.608-1.276.635-1.259.661-1.249.686-1.234.713-1.22.74-1.207.763-1.192.783-1.173.815-1.565,1.14-1.545,1.173-1.528,1.192-1.5,1.224-1.481,1.244-1.461,1.274L120.418,21,119,22.33l-1.392,1.348-1.368,1.372L114.9,26.443l-1.32,1.425-1.3,1.444-1.269,1.464-1.251,1.488-1.219,1.516-1.2,1.528-1.168,1.562L0,188.935H101.082L166.2,93.708l.329-.524.331-.531.346-.519.351-.511.363-.5.371-.5.383-.493.39-.479.4-.474.4-.466.415-.461.424-.454.437-.44.439-.434.449-.427.459-.422.462-.407.471-.4.481-.4.489-.382.38-.279.385-.266.39-.254.4-.245.4-.239.41-.232.412-.213.415-.215.424-.2.425-.187.435-.182.432-.168.439-.163.442-.148.415-.129.422-.124.42-.116.422-.1.425-.091.425-.084.427-.079.429-.064.432-.059.435-.052.432-.039.434-.025.435-.027.435-.007h.435l17.144-.005L178.883,0Z" transform="translate(0 0.001)" fill="#231f20"/><rect width="85.119" height="188.934" transform="translate(206.462 0.002)" fill="#008fbe"/><path d="M313.135.044v61.5l-24.324-54.6-.146-.313-.153-.308-.17-.309-.173-.3-.175-.294-.188-.284-.195-.281-.209-.271-.212-.281-.231-.254-.226-.267-.234-.252-.24-.232-.254-.237-.256-.23-.262-.225-.276-.21-.274-.2L284.658,2l-.285-.187-.3-.18-.3-.17-.3-.16-.306-.155-.318-.143-.3-.124-.3-.123-.3-.108-.3-.1-.307-.087-.3-.076-.31-.077-.31-.062-.31-.062L279.8.145l-.316-.034-.3-.032-.321-.024-.316-.012H253.667V83.118h20.307V19.472l24.8,56.628.145.311.156.314.16.309.173.3.184.3.182.287.2.276.206.276.217.279.219.267.227.259.235.252.244.252.25.232.262.232.268.22.263.213.277.21.283.2.294.188.283.18.3.175.3.166.314.151.3.145.321.131.326.128.326.114.32.108.332.1.328.087.337.072.333.074.341.061.335.042.345.044.344.027.343.02.341.012h24.3V.044Z" transform="translate(172.724 0.03)" fill="#231f20"/><path d="M308.492.044V70.656l.007.407.024.413.035.41.046.408.062.407.069.405.092.408.094.393.116.4.121.39.141.39.142.385.163.377.177.375.18.365.2.36.212.358.221.343.232.338.24.324.252.329.264.311.276.308.283.294.283.286.3.282.315.257.318.259.32.242.337.242.337.22.35.21.358.2.358.18.37.19.373.155.326.133.324.121.333.111.332.106.329.084.334.086.34.071.348.047.342.047.342.032.348.025.351.012.345-.012.35-.017h54.84V67.208H330.887v-51.5h44.73V.044Z" transform="translate(210.054 0.03)" fill="#231f20"/><path d="M394.468.044l.032,15.516h22.857V83.118H440.1V15.561h17.634l.269-.013.256-.008.255-.017.257-.027.254-.037.264-.044.249-.04.255-.064.242-.059.259-.067.242-.084.245-.087.241-.094.282-.131.267-.123.277-.145.27-.148.258-.163.253-.168.25-.187.25-.177.228-.192.23-.2.232-.21.212-.217.215-.22.2-.235.2-.23.2-.244.171-.247.177-.254.166-.264.152-.267.15-.271.133-.276.135-.281.119-.284.106-.282.105-.3.1-.292.08-.3.073-.291.063-.308.057-.3.042-.306L466.7,7.1l.021-.308.02-.311V6.173L466.728.044Z" transform="translate(268.596 0.03)" fill="#231f20"/><path d="M250.024.044H228.854L198.563,83.118H220.51l22.418-67.466,10.7,34.867h-19.5l5.177,16.273h20.043l5.624,16.327h23.435l-27.474-75.5-.135-.346-.143-.336-.154-.336-.163-.319-.17-.324-.187-.323-.2-.309-.208-.292-.2-.3-.222-.286-.23-.292L258.7,3.89l-.254-.271-.25-.259-.264-.257-.272-.239-.28-.237-.289-.222-.282-.212-.3-.215-.306-.192-.3-.192-.323-.177-.321-.165-.32-.156L254.6.95l-.314-.128-.316-.114-.318-.121-.316-.092-.328-.086L252.677.33l-.321-.069L252.017.2,251.7.145,251.36.111l-.329-.039-.341-.017-.327-.012Z" transform="translate(135.203 0.03)" fill="#231f20"/><path d="M382.312,0,381.6.017l-.712.025-.711.034-.713.044-.711.055-.712.067-.7.084-.708.1-.713.094-.7.113-.707.129-.7.133-.7.143-.7.153-.7.17-.693.178-.689.18-.689.2-.431.126-.432.133-.42.148-.425.153-.418.158-.417.16-.41.178-.41.187-.409.19-.408.205-.4.21-.4.2-.382.225-.393.229-.384.237-.385.24-.366.259-.374.262-.361.252-.356.277-.356.279-.35.286-.347.3-.34.3-.32.328-.32.346-.3.35-.3.36-.291.361-.288.366-.288.377-.268.378-.27.387-.257.388-.254.4-.242.4-.239.4-.227.414-.217.41-.209.413-.211.43-.194.424-.184.43-.18.43-.17.437-.172.44-.156.439-.145.454-.143.477-.128.489-.123.489-.119.486-.093.494-.093.5-.079.493-.067.5-.063.493-.041.508-.044.5-.02.5-.019.5v1.009l.019.5.035.5.035.5.051.5.054.5.069.5.086.487.094.491.107.492.108.493.123.487.141.486.141.479.113.365.111.363.138.363.129.35.145.355.145.355.151.345.167.341.164.343.18.338.187.333.191.333.2.323.222.348.229.345.235.336.249.336.242.316.265.328.264.314.271.306.275.3.291.3.29.284.3.286.625.476.646.469.647.452.648.437.666.429.674.417.669.407.695.382.692.373.7.366.709.346.716.329.657.3.671.274.675.277.684.257.679.242.691.232.684.224.7.217.7.19.7.182.708.171.7.153.717.15,2.042.561,2.041.568,2.045.548,2.044.553,2.049.529,2.052.521.331.071.321.069.332.077.318.086.328.084.32.1.314.106.318.1.314.114.306.126.309.121.3.14.308.134.308.138.3.153.3.151.289.161.29.171.291.177.281.178.281.178.274.193.281.19.276.205.23.156.23.156.218.166.221.178.2.187.2.192.19.215.189.21.173.217.168.225.142.215.138.215.126.227.118.234.1.222.115.242.089.242.076.237.079.239.06.247.061.257.04.259.054.25.02.252.02.254.013.262V59.1l-.013.257-.017.256-.024.254-.045.259-.041.249-.062.255-.055.245-.076.25-.088.244-.092.237-.1.234-.108.242-.116.215-.133.224-.126.22-.144.215-.171.229-.17.224-.185.217-.191.2-.2.205-.2.178-.222.182-.218.173-.229.165-.243.146-.234.156-.243.136-.255.138-.249.136-.26.123-.252.119-.256.129-.255.114-.265.1-.267.114-.268.1-.269.094-.274.1-.267.076-.268.081-.27.069-.284.077-.273.059-.277.052-.277.067-.284.049-.277.049-.284.042-.284.035-.279.042-.281.037H355.379V83.148h32.885l.734.029.735.013h.736l.74-.013.728-.012.738-.034.723-.032.736-.052.734-.066.73-.062.727-.086.733-.087.728-.1.721-.108.728-.118.721-.123.724-.145L401.4,82l.587-.131.577-.138.575-.148.577-.158.573-.16.568-.182.568-.187.567-.19.551-.207.556-.208.553-.222.551-.23.54-.245.549-.247.538-.261.531-.267.526-.274.528-.281.523-.3.51-.3.514-.314.51-.326.4-.267.388-.276.378-.291.387-.3.373-.3.358-.316.362-.324.344-.334.341-.345.336-.351.313-.36.318-.366.311-.371.294-.385.269-.361.26-.37.256-.38.239-.378.235-.382.227-.4.22-.4.212-.4.194-.4.192-.417.18-.412.175-.424.167-.422.153-.42.145-.44.14-.565.124-.58.125-.577.116-.575.1-.58.089-.583.077-.585.066-.577.052-.587.052-.6.035-.58.023-.6.02-.6v-.582l-.01-.593-.023-.588-.027-.592-.047-.582-.049-.59-.059-.583-.077-.583-.079-.587-.093-.578-.1-.582-.108-.578-.135-.578-.076-.318-.081-.319-.092-.311-.091-.316-.1-.316-.1-.311-.106-.309-.114-.309-.115-.306-.113-.3-.136-.313-.124-.3-.131-.291-.141-.3-.138-.289-.148-.3-.151-.286-.165-.289-.161-.287-.164-.281-.25-.385-.256-.37-.275-.373-.274-.363-.279-.363-.3-.351-.292-.346-.308-.34L416.71,42l-.326-.329-.323-.328-.3-.282-.315-.282-.308-.281-.328-.262-.321-.266-.331-.256-.333-.25-.345-.242-.34-.239-.347-.23-.35-.225-.361-.215-.461-.287-.464-.271-.474-.272-.479-.267-.476-.247-.486-.252-.49-.242-.484-.227-.493-.219-.5-.219-.5-.213-.5-.2-.507-.195-.5-.19-.511-.171-.525-.171-.512-.161-.524-.155-.519-.15-.521-.124-1.862-.5-1.859-.479-1.856-.476-1.859-.467-1.875-.456-1.872-.45-.6-.134-.615-.133-.6-.151-.594-.15-.606-.163-.6-.163-.593-.182-.6-.177-.592-.177-.585-.2-.59-.2-.588-.208L383.244,29l-.575-.219-.578-.222-.176-.052-.182-.066-.167-.067-.174-.064-.171-.066-.173-.074-.166-.084-.164-.079-.162-.087-.165-.087-.159-.091-.16-.1-.153-.1-.153-.1-.154-.1-.173-.123-.172-.143-.167-.128-.156-.141-.163-.146-.153-.148-.15-.156-.142-.155-.148-.161-.141-.163-.131-.171-.135-.166-.121-.17-.092-.136-.082-.133-.094-.138-.076-.145-.079-.138-.061-.145-.073-.141-.057-.146-.058-.153-.061-.148-.045-.155-.044-.158-.033-.151-.039-.155-.03-.165L376.72,23l-.02-.158-.026-.161-.01-.153v-.165l-.006-.165.006-.16v-.16l.017-.156.022-.163.023-.163.025-.151.023-.161.046-.156.039-.155.045-.158.049-.148.054-.156.06-.145.06-.146.069-.138.072-.14.074-.145.08-.138.086-.14.094-.128.085-.136.084-.1.085-.1.094-.094.094-.091.091-.089.1-.1.089-.086.1-.087.1-.086.1-.086.1-.077.1-.082.1-.074.111-.082.1-.066.111-.077.116-.067.109-.061.111-.069.113-.062.116-.057.124-.061.271-.113.279-.131.283-.111.291-.1.283-.113.287-.1.3-.087.284-.087.3-.076.289-.087.3-.062.3-.064.3-.061.3-.05.3-.042.3-.057.3-.032.3-.032.3-.025.3-.013.307-.015.3-.008.306,0,.3,0h25.262L412.262.074H385.169l-.718-.04-.719-.017L383.026,0Z" transform="translate(240.725 0)" fill="#231f20"/><path d="M322.993,20.471l4.489,15.115H361.9V20.471Z" transform="translate(219.927 13.939)" fill="#231f20"/></g><g transform="translate(1108.904 344)"><path d="M36.909,25c-15.709,7.136-26.4,22.135-26.4,40V356.449H72.595A26.364,26.364,0,0,0,99,330.019V0Z" transform="translate(220.678 0.004)" fill="#d50e15"/><path d="M31.655,29.052c-15.709,7.136-26.4,22.135-26.4,40V271.214H67.341a26.364,26.364,0,0,0,26.4-26.43V4.054Z" transform="translate(110.339 85.238)" fill="#d50e15"/><path d="M26.4,33.074C10.692,40.21,0,55.209,0,73.071V185.948H62.087a26.365,26.365,0,0,0,26.4-26.43V8.076Z" transform="translate(0 169.799)" fill="#d50e15"/><g transform="translate(0 369.262)" clip-path="url(#clip-path)"><path d="M.191,3.242H11.246v5.04A11.491,11.491,0,0,1,21.524,2.465c4.263,0,7.366,1.943,8.915,5.429A12.6,12.6,0,0,1,41.3,2.465c6.206,0,10.66,4.072,10.66,12.221V36.013H40.717V16.623c0-3.3-1.549-4.849-4.263-4.849-2.912,0-5.04,1.937-5.04,5.429v18.81H20.358V16.623c0-3.3-1.549-4.849-4.269-4.849-2.906,0-5.04,1.937-5.04,5.429v18.81H0V3.242Z" transform="translate(0 12.273)" fill="#da2127"/><path d="M9.308,20.076V19.5c0-10.469,7.755-17.064,17.841-17.064S44.99,8.829,44.99,19.107v.586c0,10.66-7.761,16.867-17.841,16.867-10.087.2-17.841-6.009-17.841-16.484m24.239-.191V19.3c0-5.429-2.134-8.532-6.4-8.532s-6.4,2.906-6.4,8.335v.586c0,5.62,2.134,8.723,6.4,8.723s6.4-3.1,6.4-8.532" transform="translate(46.344 12.109)" fill="#da2127"/><path d="M19.318,30.35V15.81h-3.88V8.246h3.88V5.92L30.367,1.46V8.246h6.4V15.81h-6.4V29.184c0,2.332,1.16,3.492,3.294,3.492a7.992,7.992,0,0,0,3.1-.58v8.532a21.766,21.766,0,0,1-6.206.969c-7.175,0-11.24-3.492-11.24-11.246" transform="translate(76.865 7.269)" fill="#da2127"/><path d="M19.784,4.46,30.839,0V20.747c1.746-3.294,5.232-6.009,10.661-6.009,6.206,0,10.666,3.88,10.666,12.215V48.089H41.117v-19c0-3.683-1.357-5.429-4.658-5.429s-5.62,1.937-5.62,6.206V48.089H19.784Z" transform="translate(98.504 0)" fill="#da2127"/><path d="M25.849,20.077V19.5c0-10.475,7.755-17.064,17.644-17.064,8.921,0,16.484,5.04,16.484,16.867v2.912H37.1C37.484,26.474,39.81,29,43.882,29c3.689,0,5.238-1.746,5.626-3.88H59.977c-.969,7.372-6.589,11.444-16.484,11.444-10.081.191-17.644-5.818-17.644-16.484m23.27-4.072C48.928,12.125,46.985,10,43.3,10c-3.294,0-5.626,2.129-6.206,6.009Z" transform="translate(128.701 12.114)" fill="#da2127"/><path d="M32.27,3.078H43.325v6.4C45.454,4.627,48.754,2.5,53.794,2.5V12.967c-6.786-.191-10.469,1.937-10.469,7.175V35.657H32.27Z" transform="translate(160.671 12.438)" fill="#da2127"/><path d="M36.2,25.538H46.473c.389,2.326,1.357,3.683,4.652,3.683,2.714,0,4.072-.969,4.072-2.714,0-1.549-1.548-2.326-6.009-2.906-8.723-1.166-12.412-3.689-12.412-10.475,0-7.175,6.4-10.66,13.961-10.66,7.952,0,13.578,2.714,14.349,10.469H55C54.616,10.8,53.45,9.64,50.736,9.64c-2.517,0-3.683.969-3.683,2.517s1.555,2.134,5.429,2.714c9.118,1.166,13.381,3.492,13.381,10.475,0,7.755-5.818,11.246-14.738,11.246-9.3,0-14.738-3.88-14.929-11.055" transform="translate(180.213 12.273)" fill="#da2127"/><path d="M41.514,20.076V19.5c0-10.469,7.755-17.064,17.841-17.064S77,8.829,77,19.107v.586c0,10.66-7.755,16.867-17.841,16.867-9.889.2-17.644-6.009-17.644-16.484m24.239-.191V19.3c0-5.429-2.135-8.532-6.4-8.532s-6.4,2.906-6.4,8.335v.586c0,5.62,2.134,8.723,6.4,8.723,4.072,0,6.4-3.1,6.4-8.532" transform="translate(206.697 12.109)" fill="#da2127"/><path d="M48.13,3.242H59.185V8.48c1.746-3.3,5.232-6.015,10.66-6.015,6.206,0,10.666,3.88,10.666,12.221V35.822H69.463V16.815c0-3.683-1.357-5.429-4.658-5.429s-5.62,1.937-5.62,6.206v18.23H48.13Z" transform="translate(239.637 12.273)" fill="#da2127"/></g></g></g></svg>
