<?xml version="1.0" encoding="utf-8"?>
<!-- Generator: Adobe Illustrator 24.3.0, SVG Export Plug-In . SVG Version: 6.00 Build 0)  -->
<svg version="1.1" id="Layer_1" xmlns="http://www.w3.org/2000/svg" xmlns:xlink="http://www.w3.org/1999/xlink" x="0px" y="0px"
	 viewBox="0 0 372.46 92.81" style="enable-background:new 0 0 372.46 92.81;" xml:space="preserve">
<style type="text/css">
	.st0{fill:#0072BB;}
</style>
<g id="XMLID_1_">
	<polyline id="XMLID_10_" class="st0" points="21.97,33.96 37.85,10.62 59.77,10.62 34.07,48.44 59.77,86.22 37.85,86.22 
		21.97,62.92 21.97,86.22 3.84,86.22 3.84,10.62 21.97,10.62 21.97,33.96 	"/>
	<path id="XMLID_13_" class="st0" d="M46.34,48.66c0-21.3,17.25-38.57,38.55-38.57c21.29,0,38.55,17.27,38.55,38.57
		c0,21.29-17.26,38.55-38.55,38.55C63.59,87.21,46.34,69.95,46.34,48.66z M84.89,69.07c11.27,0,20.41-9.14,20.41-20.41
		c0-11.27-9.14-20.42-20.41-20.42c-11.27,0-20.41,9.14-20.41,20.42C64.48,59.93,73.62,69.07,84.89,69.07"/>
	<path id="XMLID_17_" class="st0" d="M169.52,48.42c4.29-3.32,7.04-8.52,7.04-14.36c0-12.94-10.49-23.44-23.43-23.44h-27.21v75.6
		h13.47v-0.01h13.73c12.94,0,23.43-10.49,23.43-23.44C176.57,56.93,173.81,51.74,169.52,48.42z M153.13,68.1l-9.07-0.01V57.52h9.07
		c2.92,0,5.29,2.37,5.29,5.29C158.42,65.73,156.06,68.1,153.13,68.1z M153.13,39.36l-9.07-0.01V28.77h9.07
		c2.92,0,5.29,2.37,5.29,5.29C158.42,36.99,156.06,39.36,153.13,39.36"/>
	<path id="XMLID_18_" class="st0" d="M196.54,64.32V57.5h24.53V39.35h-24.53v-6.81c0-2.08,1.69-3.78,3.78-3.78h20.75V10.63h-20.29
		c-12.11,0-21.92,9.82-21.92,21.93v31.75c0,12.11,9.82,21.93,21.92,21.93h20.29V68.09h-20.75C198.23,68.09,196.54,66.4,196.54,64.32
		"/>
	<polyline id="XMLID_19_" class="st0" points="255.19,86.22 255.19,68.09 241.59,68.09 241.58,10.62 223.45,10.62 223.45,86.22 
		255.19,86.22 	"/>
	<path id="XMLID_20_" class="st0" d="M274.39,62.79V34.06c0-2.92,2.37-5.3,5.29-5.3h16.34V10.63h-17.4
		c-12.94,0-23.43,10.5-23.43,23.44v28.74c0,12.94,10.49,23.44,23.43,23.44h17.4V68.08h-16.34
		C276.76,68.08,274.39,65.71,274.39,62.79"/>
	<path id="XMLID_23_" class="st0" d="M330.28,9.65c-21.29,0-38.56,17.26-38.56,38.56s17.26,38.55,38.56,38.55
		s38.55-17.26,38.55-38.55S351.57,9.65,330.28,9.65z M330.28,68.63c-11.28,0-20.41-9.14-20.41-20.41c0-11.28,9.14-20.41,20.41-20.41
		c11.27,0,20.41,9.14,20.41,20.41C350.69,59.48,341.55,68.63,330.28,68.63"/>
</g>
</svg>
